<?xml version="1.0" encoding="UTF-8" standalone="no"?>
<svg width="442" height="130" version="1.2" data-reactroot="" id="svg52" sodipodi:docname="my_popos_setup.svg" inkscape:version="1.1.2 (0a00cf5339, 2022-02-04)" xmlns:inkscape="http://www.inkscape.org/namespaces/inkscape" xmlns:sodipodi="http://sodipodi.sourceforge.net/DTD/sodipodi-0.dtd" xmlns="http://www.w3.org/2000/svg" xmlns:svg="http://www.w3.org/2000/svg">
   <sodipodi:namedview id="namedview54" pagecolor="#ffffff" bordercolor="#959da5" borderopacity="1.0" inkscape:pageshadow="2" inkscape:pageopacity="0.0" inkscape:pagecheckerboard="0" showgrid="false" inkscape:zoom="3.0271493" inkscape:cx="220.83483" inkscape:cy="64.912556" inkscape:window-width="1974" inkscape:window-height="1088" inkscape:window-x="74" inkscape:window-y="27" inkscape:window-maximized="1" inkscape:current-layer="g6" />
   <defs id="defs2" />
   <g fill="none" stroke="black" stroke-width="1" fill-rule="evenodd" stroke-linecap="square" stroke-linejoin="bevel" id="g50">
      <g fill="#ffffff" fill-opacity="1" stroke="none" id="g6" transform="matrix(1,0,0,1,0,0)" />
      <rect x="0" y="0" width="441" height="129" stroke="#959da5" stroke-width="2" id="rect8" />
      <g fill="#959da5" fill-opacity="1" stroke="none" transform="matrix(1.25,0,0,1.25,17,21)" id="g12">
         <path vector-effect="none" fill-rule="evenodd" d="M4,9 L3,9 L3,8 L4,8 L4,9 M4,6 L3,6 L3,7 L4,7 L4,6 M4,4 L3,4 L3,5 L4,5 L4,4 M4,2 L3,2 L3,3 L4,3 L4,2 M12,1 L12,13 C12,13.55 11.55,14 11,14 L6,14 L6,16 L4.5,14.5 L3,16 L3,14 L1,14 C0.45,14 0,13.55 0,13 L0,1 C0,0.45 0.45,0 1,0 L11,0 C11.55,0 12,0.45 12,1 M11,11 L1,11 L1,13 L3,13 L3,12 L6,12 L6,13 L11,13 L11,11 M11,1 L2,1 L2,10 L11,10 L11,1" id="path10" />
      </g>
      <g fill="#3c5af6" fill-opacity="1" stroke="#3c5af6" stroke-opacity="1" stroke-width="1" stroke-linecap="square" stroke-linejoin="bevel" id="g18" transform="matrix(1,0,0,1,0,0)">
         <a target="" href="https://github.com/bearlike/my-popos-setup" id="a16">
            <text fill="#3c5af6" fill-opacity="1" stroke="none" xml:space="preserve" x="41" y="33" font-family="sans-serif" font-size="16" font-weight="630" font-style="normal" id="text14">bearlike/scripts</text>
         </a>
      </g>
      <g fill="#959da5" fill-opacity="1" stroke="#959da5" stroke-opacity="1" stroke-width="1" stroke-linecap="square" stroke-linejoin="bevel" id="g22" transform="matrix(1,0,0,1,0,0)">
         <text fill="#959da5" fill-opacity="1" stroke="none" xml:space="preserve" x="17" y="65" font-family="sans-serif" font-size="14" font-weight="400" font-style="normal" id="text20">Where I keep all my random scripts and programs, categorized</text>
      </g>
      <g fill="#959da5" fill-opacity="1" stroke="#959da5" stroke-opacity="1" stroke-width="1" stroke-linecap="square" stroke-linejoin="bevel" id="g26" transform="matrix(1,0,0,1,0,0)">
         <text fill="#959da5" fill-opacity="1" stroke="none" xml:space="preserve" x="17" y="86" font-family="sans-serif" font-size="14" font-weight="400" font-style="normal" id="text24">by their language, purpose or environment.</text>
      </g>
      <g fill="#959da5" fill-opacity="1" stroke="#959da5" stroke-opacity="1" stroke-width="1" stroke-linecap="square" stroke-linejoin="bevel" id="g30" transform="matrix(1,0,0,1,0,0)">
         <text fill="#959da5" fill-opacity="1" stroke="none" xml:space="preserve" x="33" y="112" font-family="sans-serif" font-size="12" font-weight="400" font-style="normal" id="text28">Python</text>
      </g>
      <g fill="#959da5" fill-opacity="1" stroke="#959da5" stroke-opacity="1" stroke-width="1" stroke-linecap="square" stroke-linejoin="bevel" id="g42" transform="matrix(1,0,0,1,0,0)" />
      <g fill="#000000" fill-opacity="1" stroke="none" transform="matrix(1,0,0,1,143,99)" id="g44" />
      <g fill="#959da5" fill-opacity="1" stroke="#959da5" stroke-opacity="1" stroke-width="1" stroke-linecap="square" stroke-linejoin="bevel" id="g46" transform="matrix(1,0,0,1,0,0)" />
      <circle cx="23" cy="107" r="7" stroke="none" fill="#4271a3" id="circle48" />
      <g fill="#959da5" fill-opacity="1" stroke="#959da5" stroke-opacity="1" stroke-width="1" stroke-linecap="square" stroke-linejoin="bevel" transform="matrix(1,0,0,1,0,0)">
         <text fill="#959da5" fill-opacity="1" stroke="none" xml:space="preserve" x="93" y="112" font-family="sans-serif" font-size="12" font-weight="400" font-style="normal">Shell</text>
      </g>
      <circle cx="83" cy="107" r="7" stroke="none" fill="#89e051"/>
   </g>
</svg>
